<?xml version="1.0" encoding="UTF-8" standalone="no"?>
<svg
   xmlns:dc="http://purl.org/dc/elements/1.1/"
   xmlns:cc="http://creativecommons.org/ns#"
   xmlns:rdf="http://www.w3.org/1999/02/22-rdf-syntax-ns#"
   xmlns:svg="http://www.w3.org/2000/svg"
   xmlns="http://www.w3.org/2000/svg"
   viewBox="0 0 6000 3360"
   height="3360"
   width="6000"
   xml:space="preserve"
   id="svg2"
   version="1.1"><metadata
     id="metadata8"><rdf:RDF><cc:Work
         rdf:about=""><dc:format>image/svg+xml</dc:format><dc:type
           rdf:resource="http://purl.org/dc/dcmitype/StillImage" /></cc:Work></rdf:RDF></metadata><defs
     id="defs6"><linearGradient
       id="linearGradient22"
       spreadMethod="pad"
       gradientTransform="matrix(-44182.1,24957.9,24957.9,44182.1,43562.9,701.899)"
       gradientUnits="userSpaceOnUse"
       y2="0"
       x2="1"
       y1="0"
       x1="0"><stop
         id="stop16"
         offset="0"
         style="stop-opacity:1;stop-color:#65007e" /><stop
         id="stop18"
         offset="0.992308"
         style="stop-opacity:1;stop-color:#37003c" /><stop
         id="stop20"
         offset="1"
         style="stop-opacity:1;stop-color:#37003c" /></linearGradient><clipPath
       id="clipPath32"
       clipPathUnits="userSpaceOnUse"><path
         id="path30"
         d="m 43243.5,21517.5 c 583.5,21 1168.5,37.5 1756.5,48 v -1671 c -580.5,550.5 -1165.5,1092 -1756.5,1623 z" /></clipPath><linearGradient
       id="linearGradient42"
       spreadMethod="pad"
       gradientTransform="matrix(-43676.2,25295.1,25295.1,43676.2,52411.2,16437.8)"
       gradientUnits="userSpaceOnUse"
       y2="0"
       x2="1"
       y1="0"
       x1="0"><stop
         id="stop36"
         offset="0"
         style="stop-opacity:1;stop-color:#973dfd" /><stop
         id="stop38"
         offset="0.992308"
         style="stop-opacity:1;stop-color:#fc2a81" /><stop
         id="stop40"
         offset="1"
         style="stop-opacity:1;stop-color:#fc2a81" /></linearGradient><clipPath
       id="clipPath52"
       clipPathUnits="userSpaceOnUse"><path
         id="path50"
         d="m 43698,6469.5 c 433.5,-51 868.5,-105 1302,-163.5 V 4849.5 c -429,546 -862.5,1086 -1302,1620 z" /></clipPath><linearGradient
       id="linearGradient62"
       spreadMethod="pad"
       gradientTransform="matrix(-43676.1,25295.1,25295.1,43676.1,45839.9,5091.3)"
       gradientUnits="userSpaceOnUse"
       y2="0"
       x2="1"
       y1="0"
       x1="0"><stop
         id="stop56"
         offset="0"
         style="stop-opacity:1;stop-color:#973dfd" /><stop
         id="stop58"
         offset="0.992308"
         style="stop-opacity:1;stop-color:#fc2a81" /><stop
         id="stop60"
         offset="1"
         style="stop-opacity:1;stop-color:#fc2a81" /></linearGradient><clipPath
       id="clipPath72"
       clipPathUnits="userSpaceOnUse"><path
         id="path70"
         d="m 45000,22576.5 c -988.5,901.5 -1992,1776 -3007.5,2623.5 H 45000 Z" /></clipPath><linearGradient
       id="linearGradient82"
       spreadMethod="pad"
       gradientTransform="matrix(-43676.3,25295.2,25295.2,43676.3,53780.9,18802.8)"
       gradientUnits="userSpaceOnUse"
       y2="0"
       x2="1"
       y1="0"
       x1="0"><stop
         id="stop76"
         offset="0"
         style="stop-opacity:1;stop-color:#973dfd" /><stop
         id="stop78"
         offset="0.992308"
         style="stop-opacity:1;stop-color:#fc2a81" /><stop
         id="stop80"
         offset="1"
         style="stop-opacity:1;stop-color:#fc2a81" /></linearGradient><clipPath
       id="clipPath92"
       clipPathUnits="userSpaceOnUse"><path
         id="path90"
         d="m 29517,25200 h 9963 c 466.5,-400.5 928.5,-807 1389,-1219.5 -961.5,-19.5 -1918.5,-52.5 -2871,-99 2413.5,-2058 4753.5,-4258.5 7002,-6601.5 V 7987.5 C 43353,9978 41643,11880 39874.5,13686 c -1294.5,1324.5 -2619,2596.5 -3972,3817.5 940.5,33 1884,51 2832,57 -2434.5,2301 -4962,4441.5 -7564.5,6414 -547.5,415.5 -1098,825 -1653,1225.5 z" /></clipPath><linearGradient
       id="linearGradient102"
       spreadMethod="pad"
       gradientTransform="matrix(-43676.3,25295.1,25295.1,43676.3,49924.2,12143.5)"
       gradientUnits="userSpaceOnUse"
       y2="0"
       x2="1"
       y1="0"
       x1="0"><stop
         id="stop96"
         offset="0"
         style="stop-opacity:1;stop-color:#973dfd" /><stop
         id="stop98"
         offset="0.992308"
         style="stop-opacity:1;stop-color:#fc2a81" /><stop
         id="stop100"
         offset="1"
         style="stop-opacity:1;stop-color:#fc2a81" /></linearGradient><clipPath
       id="clipPath112"
       clipPathUnits="userSpaceOnUse"><path
         id="path110"
         d="m 22209,23602.5 c -777,546 -1561.5,1080 -2350.5,1597.5 h 6774 c 637.5,-474 1270.5,-957 1899,-1450.5 1405.5,-1107 2788.5,-2262 4143,-3466.5 -958.5,-24 -1912.5,-63 -2862,-114 2733,-2299.5 5370,-4782 7890,-7446 1248,-1321.5 2464.5,-2689.5 3648,-4104 -957,123 -1912.5,229.5 -2865,324 C 40773,6349.5 42951,3595.5 45000,685.5 V 0 h -6760.5 c -627,825 -1264.5,1633.5 -1914,2427 940.5,-114 1882.5,-244.5 2826,-387 -2187,2812.5 -4503,5457 -6925.5,7924.5 -1194,1219.5 -2416.5,2395.5 -3664.5,3525 940.5,30 1885.5,46.5 2833.5,49.5 -2533.5,2407.5 -5167.5,4639.5 -7884,6688.5 -1339.5,1015.5 -2701.5,1983 -4080,2904 919.5,171 1846.5,327 2778,471 z" /></clipPath><linearGradient
       id="linearGradient122"
       spreadMethod="pad"
       gradientTransform="matrix(-43676.2,25295.1,25295.1,43676.2,45729.7,4901)"
       gradientUnits="userSpaceOnUse"
       y2="0"
       x2="1"
       y1="0"
       x1="0"><stop
         id="stop116"
         offset="0"
         style="stop-opacity:1;stop-color:#973dfd" /><stop
         id="stop118"
         offset="0.992308"
         style="stop-opacity:1;stop-color:#fc2a81" /><stop
         id="stop120"
         offset="1"
         style="stop-opacity:1;stop-color:#fc2a81" /></linearGradient><clipPath
       id="clipPath132"
       clipPathUnits="userSpaceOnUse"><path
         id="path130"
         d="m 5887.5,25200 h 7038 c 2647.5,-1669.5 5238,-3489 7758,-5457 1287,-1011 2553,-2062.5 3796.5,-3157.5 -955.5,-28.5 -1908,-73.5 -2856,-130.5 2847,-2364 5592,-4927.5 8211,-7689 1141.5,-1207.5 2256,-2454 3342,-3742.5 -955.5,118.5 -1909.5,219 -2860.5,307.5 C 31839,3624 33313.5,1848 34734,0 H 30180 C 28389,2191.5 26518.5,4273.5 24579,6241.5 23482.5,7359 22362,8436 21222,9474 c 939,28.5 1884,42 2832,43.5 -2629.5,2515.5 -5373,4837.5 -8203.5,6963 -1228.5,927 -2475,1815 -3739.5,2661 921,169.5 1848,324 2779.5,466.5 -2925,2064 -5932.51,3928.5 -9003,5592 z" /></clipPath><linearGradient
       id="linearGradient142"
       spreadMethod="pad"
       gradientTransform="matrix(-43676.1,25295,25295,43676.1,42996.1,181.101)"
       gradientUnits="userSpaceOnUse"
       y2="0"
       x2="1"
       y1="0"
       x1="0"><stop
         id="stop136"
         offset="0"
         style="stop-opacity:1;stop-color:#973dfd" /><stop
         id="stop138"
         offset="0.992308"
         style="stop-opacity:1;stop-color:#fc2a81" /><stop
         id="stop140"
         offset="1"
         style="stop-opacity:1;stop-color:#fc2a81" /></linearGradient><clipPath
       id="clipPath152"
       clipPathUnits="userSpaceOnUse"><path
         id="path150"
         d="M 0,20431.5 V 25200 h 2131.49 c 73.51,-40.5 148.51,-82.5 222,-124.5 1275,-723 2538.01,-1483.5 3786,-2281.5 C 5205,22617 4276.5,22425 3354,22221 c 3249,-1939.5 6418.49,-4101 9483,-6486 1167,-913.5 2317.5,-1861.5 3448.5,-2845.5 -955.5,-36 -1906.5,-87 -2853,-150 C 16395,10311 19248,7666.5 21966,4809 c 1035,-1092 2049,-2220 3039,-3381 -957,112.5 -1911,208.5 -2862,289.5 510,-564 1014,-1137 1512,-1717.5 H 19326 C 18540,859.5 17742,1701 16930.5,2520 15933,3532.5 14916,4513.5 13881,5460 c 939,25.5 1884,37.5 2832,34.5 -2728.5,2623.5 -5577,5038.5 -8521.5,7239 -1119.01,840 -2251.5,1645.5 -3399,2418 919.49,166.5 1846.5,321 2779.5,460.5 C 5103,17361 2575.49,18969 0,20431.5 Z" /></clipPath><linearGradient
       id="linearGradient162"
       spreadMethod="pad"
       gradientTransform="matrix(-43676.3,25295.1,25295.1,43676.3,40279.2,-4510.1)"
       gradientUnits="userSpaceOnUse"
       y2="0"
       x2="1"
       y1="0"
       x1="0"><stop
         id="stop156"
         offset="0"
         style="stop-opacity:1;stop-color:#973dfd" /><stop
         id="stop158"
         offset="0.992308"
         style="stop-opacity:1;stop-color:#fc2a81" /><stop
         id="stop160"
         offset="1"
         style="stop-opacity:1;stop-color:#fc2a81" /></linearGradient><clipPath
       id="clipPath172"
       clipPathUnits="userSpaceOnUse"><path
         id="path170"
         d="m 0,11574 c 86.9922,13.5 172.484,25.5 259.496,39 -87.012,61.5 -172.5038,123 -259.496,183 v 3541.5 C 1690.5,14199 3355.48,12996 4989,11728.5 6037.5,10912.5 7072.49,10066.5 8092.5,9192 7136.99,9148.5 6187.5,9090 5240.99,9018 8320.49,6529.5 11281.5,3805.5 14097,852 14365.5,570 14631,286.5 14895,0 H 8068.51 C 7564.49,490.5 7054.5,972 6540,1444.5 c 940.48,24 1885.49,31.5 2833.5,25.5 C 6548.99,4204.5 3590.99,6711 531.008,8986.5 354,9118.5 178.492,9249 0,9378 Z" /></clipPath><linearGradient
       id="linearGradient180"
       spreadMethod="pad"
       gradientTransform="matrix(-43676.2,25295.1,25295.1,43676.2,36457.5,-11109.2)"
       gradientUnits="userSpaceOnUse"
       y2="0"
       x2="1"
       y1="0"
       x1="0"><stop
         id="stop174"
         offset="0"
         style="stop-opacity:1;stop-color:#973dfd" /><stop
         id="stop176"
         offset="0.992308"
         style="stop-opacity:1;stop-color:#fc2a81" /><stop
         id="stop178"
         offset="1"
         style="stop-opacity:1;stop-color:#fc2a81" /></linearGradient><clipPath
       id="clipPath190"
       clipPathUnits="userSpaceOnUse"><path
         id="path188"
         d="M 0,0 V 2835 C 1054.5,1920 2093.99,975 3117,0 Z" /></clipPath><linearGradient
       id="linearGradient198"
       spreadMethod="pad"
       gradientTransform="matrix(-43676.2,25295.1,25295.1,43676.2,32733,-17539.9)"
       gradientUnits="userSpaceOnUse"
       y2="0"
       x2="1"
       y1="0"
       x1="0"><stop
         id="stop192"
         offset="0"
         style="stop-opacity:1;stop-color:#973dfd" /><stop
         id="stop194"
         offset="0.992308"
         style="stop-opacity:1;stop-color:#fc2a81" /><stop
         id="stop196"
         offset="1"
         style="stop-opacity:1;stop-color:#fc2a81" /></linearGradient></defs><g
     transform="matrix(1.3333333,0,0,-1.3333333,0,3360)"
     id="g10"><g
       transform="scale(0.1)"
       id="g12"><g
         transform="scale(2.76074)"
         id="g14"><path
           id="path24"
           style="fill:url(#linearGradient22);fill-opacity:1;fill-rule:nonzero;stroke:none"
           d="M 0,0 V 9128 H 16300 V 0 H 0" /></g><g
         id="g26"><g
           clip-path="url(#clipPath32)"
           id="g28"><g
             transform="scale(2.76074)"
             id="g34"><path
               id="path44"
               style="fill:url(#linearGradient42);fill-opacity:1;fill-rule:nonzero;stroke:none"
               d="m 15663.8,7794.11 c 211.3,7.61 423.2,13.59 636.2,17.39 v -605.28 c -210.3,199.4 -422.2,395.55 -636.2,587.89" /></g></g></g><g
         id="g46"><g
           clip-path="url(#clipPath52)"
           id="g48"><g
             transform="scale(2.76074)"
             id="g54"><path
               id="path64"
               style="fill:url(#linearGradient62);fill-opacity:1;fill-rule:nonzero;stroke:none"
               d="m 15828.4,2343.4 c 157,-18.48 314.6,-38.04 471.6,-59.23 V 1756.6 c -155.4,197.77 -312.4,393.37 -471.6,586.8" /></g></g></g><g
         id="g66"><g
           clip-path="url(#clipPath72)"
           id="g68"><g
             transform="scale(2.76074)"
             id="g74"><path
               id="path84"
               style="fill:url(#linearGradient82);fill-opacity:1;fill-rule:nonzero;stroke:none"
               d="m 16300,8177.71 c -358.1,326.54 -721.5,643.3 -1089.4,950.29 H 16300 v -950.29" /></g></g></g><g
         id="g86"><g
           clip-path="url(#clipPath92)"
           id="g88"><g
             transform="scale(2.76074)"
             id="g94"><path
               id="path104"
               style="fill:url(#linearGradient102);fill-opacity:1;fill-rule:nonzero;stroke:none"
               d="m 10691.7,9128 h 3608.8 c 169,-145.07 336.4,-292.32 503.2,-441.74 -348.3,-7.05 -695,-19.01 -1040,-35.85 874.2,-745.45 1721.8,-1542.53 2536.3,-2391.21 V 2893.25 c -596.6,721 -1216,1409.95 -1856.6,2064.12 -468.9,479.77 -948.6,940.5 -1438.7,1382.78 340.7,11.95 682.4,18.47 1025.8,20.64 -881.8,833.48 -1797.4,1608.82 -2740,2323.31 -198.4,150.49 -397.8,298.83 -598.8,443.9" /></g></g></g><g
         id="g106"><g
           clip-path="url(#clipPath112)"
           id="g108"><g
             transform="scale(2.76074)"
             id="g114"><path
               id="path124"
               style="fill:url(#linearGradient122);fill-opacity:1;fill-rule:nonzero;stroke:none"
               d="m 8044.59,8549.34 c -281.44,197.78 -565.61,391.2 -851.4,578.66 h 2453.69 c 230.92,-171.7 460.22,-346.65 687.82,-525.4 509.1,-400.99 1010.1,-819.35 1500.7,-1255.65 -347.2,-8.69 -692.7,-22.83 -1036.7,-41.29 990,-832.94 1945.2,-1732.14 2858,-2697.11 452,-478.67 892.7,-974.19 1321.4,-1486.56 -346.7,44.56 -692.8,83.13 -1037.8,117.36 828.6,-939.42 1617.5,-1936.98 2359.7,-2991.047 V 0 h -2448.8 c -227.1,298.833 -458,591.69 -693.3,879.113 340.7,-41.293 681.9,-88.563 1023.6,-140.18 -792.1,1018.747 -1631,1976.647 -2508.5,2870.427 -432.5,441.73 -875.3,867.71 -1327.4,1276.84 340.7,10.86 683,16.84 1026.4,17.93 -917.7,872.05 -1871.82,1680.52 -2855.79,2422.71 -485.2,367.84 -978.55,718.29 -1477.87,1051.9 333.06,61.94 668.84,118.45 1006.25,170.6" /></g></g></g><g
         id="g126"><g
           clip-path="url(#clipPath132)"
           id="g128"><g
             transform="scale(2.13092)"
             id="g134"><path
               id="path144"
               style="fill:url(#linearGradient142);fill-opacity:1;fill-rule:nonzero;stroke:none"
               d="m 2762.89,11825.9 h 3302.8 C 7308.11,11042.4 8523.78,10188.6 9706.37,9265 10310.3,8790.56 10904.4,8297.11 11488,7783.24 c -448.4,-13.37 -895.4,-34.47 -1340.3,-61.23 1336.1,-1109.37 2624.2,-2312.38 3853.3,-3608.29 535.7,-566.66 1058.7,-1151.62 1568.3,-1756.29 -448.4,55.61 -896.1,102.77 -1342.3,144.31 C 14941.4,1700.67 15633.4,867.231 16300,0 h -2137.1 c -840.5,1028.43 -1718.3,2005.47 -2628.4,2929.02 -514.6,524.42 -1040.4,1029.83 -1575.42,1516.95 440.62,13.37 884.12,19.71 1329.02,20.41 -1234,1180.48 -2521.46,2270.15 -3849.76,3267.59 -576.52,435.02 -1161.47,851.75 -1754.88,1248.76 432.21,79.55 867.23,152.06 1304.37,218.92 -1372.65,968.65 -2784.02,1843.55 -4224.94,2624.25" /></g></g></g><g
         id="g146"><g
           clip-path="url(#clipPath152)"
           id="g148"><g
             transform="scale(1.54601)"
             id="g154"><path
               id="path164"
               style="fill:url(#linearGradient162);fill-opacity:1;fill-rule:nonzero;stroke:none"
               d="M 0,13215.6 V 16300 h 1378.7 c 47.55,-26.2 96.06,-53.4 143.6,-80.5 824.7,-467.7 1641.65,-959.6 2448.88,-1475.8 -604.45,-114.5 -1205.03,-238.6 -1801.73,-370.6 2101.54,-1254.5 4151.65,-2652.6 6133.85,-4195.3 754.84,-590.88 1499.02,-1204.07 2230.6,-1840.54 -618.07,-23.29 -1233.2,-56.28 -1845.42,-97.03 1916.22,-1570.81 3761.62,-3281.34 5519.72,-5129.65 669.4,-706.33 1325.3,-1435.95 1965.7,-2186.913 -619,72.768 -1236.1,134.863 -1851.2,187.253 329.8,-364.807 655.8,-735.438 978,-1110.92 h -2800.2 c -508.4,555.946 -1024.5,1100.25 -1549.4,1630 -645.2,654.91 -1303.05,1289.45 -1972.52,1901.67 607.37,16.49 1218.62,24.25 1831.82,22.31 C 9045.53,5250.93 7203.05,6813.01 5298.47,8236.35 4574.67,8779.68 3842.14,9300.7 3099.91,9800.37 3694.66,9908.06 4294.27,10008 4897.76,10098.2 3300.75,11229.5 1665.89,12269.6 0,13215.6" /></g></g></g><g
         id="g166"><g
           clip-path="url(#clipPath172)"
           id="g168"><path
             id="path182"
             style="fill:url(#linearGradient180);fill-opacity:1;fill-rule:nonzero;stroke:none"
             d="m 0,11574 c 86.9922,13.5 172.484,25.5 259.496,39 -87.012,61.5 -172.5038,123 -259.496,183 v 3541.5 C 1690.5,14199 3355.48,12996 4989,11728.5 6037.5,10912.5 7072.49,10066.5 8092.5,9192 7136.99,9148.5 6187.5,9090 5240.99,9018 8320.49,6529.5 11281.5,3805.5 14097,852 14365.5,570 14631,286.5 14895,0 H 8068.51 C 7564.49,490.5 7054.5,972 6540,1444.5 c 940.48,24 1885.49,31.5 2833.5,25.5 C 6548.99,4204.5 3590.99,6711 531.008,8986.5 354,9118.5 178.492,9249 0,9378 v 2196" /></g></g><g
         id="g184"><g
           clip-path="url(#clipPath190)"
           id="g186"><path
             id="path200"
             style="fill:url(#linearGradient198);fill-opacity:1;fill-rule:nonzero;stroke:none"
             d="M 0,0 V 2835 C 1054.5,1920 2093.99,975 3117,0 H 0" /></g></g></g></g></svg>